<svg width="37" height="33" viewBox="0 0 37 33" fill="none" xmlns="http://www.w3.org/2000/svg">
<path fill-rule="evenodd" clip-rule="evenodd" d="M10.2778 7.33333C10.2778 5.38841 11.144 3.52315 12.686 2.14788C14.228 0.772617 16.3193 0 18.5 0C20.6807 0 22.772 0.772617 24.314 2.14788C25.856 3.52315 26.7222 5.38841 26.7222 7.33333C26.7222 9.27825 25.856 11.1435 24.314 12.5188C22.772 13.8941 20.6807 14.6667 18.5 14.6667C16.3193 14.6667 14.228 13.8941 12.686 12.5188C11.144 11.1435 10.2778 9.27825 10.2778 7.33333ZM10.2778 18.3333C7.55194 18.3333 4.93775 19.2991 3.01029 21.0182C1.08283 22.7373 0 25.0688 0 27.5C0 28.9587 0.649701 30.3576 1.80618 31.3891C2.96265 32.4205 4.53117 33 6.16667 33H30.8333C32.4688 33 34.0373 32.4205 35.1938 31.3891C36.3503 30.3576 37 28.9587 37 27.5C37 25.0688 35.9172 22.7373 33.9897 21.0182C32.0623 19.2991 29.4481 18.3333 26.7222 18.3333H10.2778Z" fill="white"/>
</svg>
