<svg width="33" height="33" viewBox="0 0 33 33" fill="none" xmlns="http://www.w3.org/2000/svg">
<path fill-rule="evenodd" clip-rule="evenodd" d="M1.55102 1.03714C2.21346 0.373878 3.11218 0.000825245 4.04959 0L17.2189 0C18.1564 0.000825245 19.0551 0.373878 19.7175 1.03714L27.7648 9.08443C28.4281 9.74687 28.8011 10.6456 28.8019 11.583V29.4643C28.8019 30.402 28.4294 31.3013 27.7664 31.9644C27.1033 32.6275 26.204 33 25.2662 33H4.05195C3.11422 33 2.2149 32.6275 1.55182 31.9644C0.888747 31.3013 0.516235 30.402 0.516235 29.4643V3.53571C0.516235 2.59757 0.886307 1.69714 1.55102 1.03714ZM12.5636 10.6708C12.7529 10.8056 12.9137 10.9765 13.0369 11.1735C13.1601 11.3706 13.2432 11.59 13.2816 11.8192C13.3199 12.0484 13.3126 12.283 13.2602 12.5094C13.2078 12.7358 13.1112 12.9496 12.9761 13.1387L9.68316 17.7493C9.53384 17.9579 9.34091 18.1315 9.11775 18.2581C8.8946 18.3846 8.64657 18.4611 8.39089 18.4822C8.13521 18.5033 7.87801 18.4685 7.63713 18.3802C7.39626 18.2919 7.17749 18.1522 6.99602 17.9709L5.02074 15.9956C4.70846 15.6604 4.53846 15.2172 4.54654 14.7592C4.55462 14.3012 4.74015 13.8642 5.06405 13.5403C5.38796 13.2164 5.82494 13.0309 6.28293 13.0228C6.74093 13.0147 7.18418 13.1847 7.51931 13.497L8.01902 13.9944L10.098 11.0856C10.3703 10.704 10.783 10.4462 11.2454 10.3688C11.7078 10.2915 12.1819 10.3986 12.5636 10.6708ZM14.8029 15.0244C14.8029 14.5556 14.9891 14.1059 15.3207 13.7744C15.6522 13.4428 16.1019 13.2566 16.5707 13.2566H22.4636C22.9325 13.2566 23.3821 13.4428 23.7137 13.7744C24.0452 14.1059 24.2314 14.5556 24.2314 15.0244C24.2314 15.4933 24.0452 15.943 23.7137 16.2745C23.3821 16.606 22.9325 16.7923 22.4636 16.7923H16.5707C16.1019 16.7923 15.6522 16.606 15.3207 16.2745C14.9891 15.943 14.8029 15.4933 14.8029 15.0244ZM14.8029 24.3799C14.8029 23.9111 14.9891 23.4614 15.3207 23.1299C15.6522 22.7983 16.1019 22.6121 16.5707 22.6121H22.4636C22.9325 22.6121 23.3821 22.7983 23.7137 23.1299C24.0452 23.4614 24.2314 23.9111 24.2314 24.3799C24.2314 24.8488 24.0452 25.2985 23.7137 25.63C23.3821 25.9615 22.9325 26.1478 22.4636 26.1478H16.5707C16.1019 26.1478 15.6522 25.9615 15.3207 25.63C14.9891 25.2985 14.8029 24.8488 14.8029 24.3799ZM12.9761 22.6404C13.1175 22.4519 13.2199 22.2371 13.2771 22.0085C13.3343 21.78 13.3452 21.5423 13.3093 21.3094C13.2733 21.0765 13.1912 20.8532 13.0677 20.6526C12.9442 20.4519 12.7818 20.278 12.5901 20.141C12.3984 20.004 12.1813 19.9066 11.9515 19.8548C11.7216 19.8029 11.4837 19.7974 11.2518 19.8388C11.0198 19.8802 10.7985 19.9675 10.6007 20.0956C10.403 20.2237 10.2329 20.3901 10.1004 20.5849L8.01902 23.496L7.51931 22.9963C7.18418 22.684 6.74093 22.514 6.28293 22.5221C5.82494 22.5302 5.38796 22.7157 5.06405 23.0396C4.74015 23.3635 4.55462 23.8005 4.54654 24.2585C4.53846 24.7165 4.70846 25.1597 5.02074 25.4949L6.99602 27.4701C7.17749 27.6515 7.39626 27.7911 7.63713 27.8794C7.87801 27.9678 8.13521 28.0026 8.39089 27.9815C8.64657 27.9604 8.8946 27.8839 9.11775 27.7574C9.34091 27.6308 9.53384 27.4572 9.68316 27.2486L12.9761 22.6404Z" fill="white"/>
</svg>
